<svg xmlns="http://www.w3.org/2000/svg" xmlns:xlink="http://www.w3.org/1999/xlink" id="Layer_1" width="350" height="350" x="0" y="0" enable-background="new 0 0 350 350" version="1.1" viewBox="0 0 350 350" xml:space="preserve"><circle cx="174.726" cy="172.341" r="152.403" fill="#6AB257" stroke="#CCC" stroke-miterlimit="10" stroke-width="2"/><g><path fill="#FFF" fill-rule="evenodd" d="M175.896,51.169c11.1,0,20.092,8.941,20.092,19.977 c0,11.031-8.992,19.973-20.092,19.973c-11.088,0-20.08-8.941-20.08-19.973C155.816,60.111,164.809,51.169,175.896,51.169" clip-rule="evenodd"/><path fill="#FFF" fill-rule="evenodd" d="M212.916,187.426c5.434-5.07,8.846-12.256,8.846-20.241 c0-5.379-1.562-10.375-4.211-14.627l-32.254-48.455c-7.508-10.406-23.453-9.195-32.529-0.371c0,0-19.225,18.664-23.121,22.484 c-3.895,3.816-2.666,9.631,0.941,12.201l27.096,19.318c2.83,2.016,6.51,1.926,9.223,0.07l-29.113,57.075h35.26 c-1.002,11.371-1.934,21.977-1.934,21.977l-4.322,49.184c-0.447,4.98,3.264,9.369,8.27,9.803c5.02,0.438,9.424-3.244,9.861-8.225 l6.4-72.738h22.686C214.014,214.881,212.906,187.432,212.916,187.426z M145.74,129.798l14.477-14.094l6.742,29.816 c-0.51-0.734-1.131-1.402-1.9-1.947L145.74,129.798z" clip-rule="evenodd"/></g></svg>