<svg xmlns="http://www.w3.org/2000/svg" xmlns:xlink="http://www.w3.org/1999/xlink" id="Layer_1" width="350" height="350" x="0" y="0" enable-background="new 0 0 350 350" version="1.1" viewBox="0 0 350 350" xml:space="preserve"><circle cx="174.043" cy="172.98" r="152.402" fill="#6AB257" stroke="#CCC" stroke-miterlimit="10" stroke-width="2"/><g><path fill="#FFF" fill-rule="evenodd" d="M170.84,73.627h5.111v-5.17h5.098v-5.16h-5.098v-5.176h-5.111 v5.176h-5.094v5.16h5.094V73.627 M173.424,56.098c7.283,0,19.209,3.09,25.846,10.457l-8.938,17.395 c-3.918-5.117-10.023-8.4-16.914-8.4c-6.805,0-12.844,3.217-16.758,8.232l-9.115-16.848 C155.221,59.156,165.836,56.098,173.424,56.098" clip-rule="evenodd"/><path fill="#FFF" fill-rule="evenodd" d="M189.811,98.293c0,9.184-7.34,16.617-16.416,16.617 c-9.07,0-16.398-7.434-16.398-16.617c0-9.189,7.328-16.625,16.398-16.625C182.471,81.666,189.811,89.104,189.811,98.293" clip-rule="evenodd"/><path fill="#FFF" fill-rule="evenodd" d="M227.551,190.723l-15.859-51.801 c-1.959-5.939-9-15.707-21.912-15.707h-1.031h-30.197h-1.027c-12.912,0-19.955,9.768-21.914,15.707l-15.859,52.307 c-3.17,11.363,11.098,15.812,14.494,4.742l8.588-26.294l7.385-16.462h4.26l-24.738,80h26.52v62.395 c0,6.008,5.104,7.605,8.064,7.316c2.971,0.291,7.936-1.256,7.936-7.316v-62.395h4.244l-0.01,61.453c0,6.059,2.441,8.6,6.914,8.303 c4.447,0.287,6.852-1.354,6.852-7.361v-62.395h27.307l-24.738-80h4.26l7.385,16.334l8.588,27.662 C216.451,208.285,230.721,202.09,227.551,190.723z" clip-rule="evenodd"/></g></svg>